<svg width="140" height="140" viewBox="0 0 140 140" fill="none" xmlns="http://www.w3.org/2000/svg">
<path d="M49.7874 22.7596C53.1803 19.0104 54.7902 17.2442 56.7369 16.284C58.4741 15.4271 60.3996 15.0228 62.3348 15.1088C64.5032 15.2052 66.6875 16.175 71.3016 18.2432L111.28 36.1634C115.894 38.2317 118.071 39.217 119.586 40.7716C120.938 42.159 121.917 43.8654 122.433 45.7324C123.012 47.8245 122.764 50.2015 122.223 55.229L117.534 98.7879C116.993 103.815 116.729 106.191 115.718 108.112C114.816 109.826 113.496 111.285 111.88 112.353C110.069 113.549 107.732 114.049 102.783 115.087L59.9073 124.088C54.9586 125.127 52.618 125.61 50.4787 125.242C48.5696 124.914 46.7743 124.11 45.2592 122.903C43.5615 121.55 42.3645 119.482 39.8472 115.096L18.0376 77.1002C15.5204 72.7148 14.3381 70.6379 14.0264 68.4897C13.7482 66.5727 13.9588 64.6166 14.6386 62.8027C15.4003 60.7701 16.9976 58.9925 20.3905 55.2433L49.7874 22.7596Z" fill="url(#paint0_linear_1504_992)" stroke="url(#paint1_linear_1504_992)"/>
<defs>
<linearGradient id="paint0_linear_1504_992" x1="17.6238" y1="24.7893" x2="113.224" y2="117.026" gradientUnits="userSpaceOnUse">
<stop stop-color="#7C9DF8"/>
<stop offset="1" stop-color="#00F218"/>
</linearGradient>
<linearGradient id="paint1_linear_1504_992" x1="17.6238" y1="24.7893" x2="113.224" y2="117.026" gradientUnits="userSpaceOnUse">
<stop stop-color="#7C9DF8"/>
<stop offset="1" stop-color="#00F218"/>
</linearGradient>
</defs>
</svg>
