<svg width="140" height="140" viewBox="0 0 140 140" fill="none" xmlns="http://www.w3.org/2000/svg">
<path d="M61.7806 14.9064C66.3691 9.57062 74.6309 9.57061 79.2194 14.9064L94.4592 32.6284C95.7268 34.1024 97.3207 35.2605 99.1143 36.0105L120.678 45.028C127.171 47.743 129.724 55.6005 126.067 61.6133L113.922 81.5835C112.912 83.2446 112.303 85.1184 112.144 87.0559L110.231 110.351C109.655 117.365 102.971 122.221 96.1229 120.601L73.377 115.222C71.4851 114.774 69.5149 114.774 67.623 115.222L44.8771 120.601C38.0286 122.221 31.3446 117.365 30.7688 110.351L28.8562 87.0559C28.6972 85.1184 28.0883 83.2446 27.0781 81.5835L14.9329 61.6133C11.2762 55.6005 13.8292 47.743 20.3218 45.028L41.8857 36.0105C43.6793 35.2605 45.2732 34.1024 46.5408 32.6284L61.7806 14.9064Z" fill="url(#paint0_linear_1504_986)" stroke="url(#paint1_linear_1504_986)"/>
<defs>
<linearGradient id="paint0_linear_1504_986" x1="21.3411" y1="8.79977" x2="112.846" y2="137" gradientUnits="userSpaceOnUse">
<stop stop-color="#7C9DF8"/>
<stop offset="1" stop-color="#00F218"/>
</linearGradient>
<linearGradient id="paint1_linear_1504_986" x1="21.3411" y1="8.79977" x2="112.846" y2="137" gradientUnits="userSpaceOnUse">
<stop stop-color="#7C9DF8"/>
<stop offset="1" stop-color="#00F218"/>
</linearGradient>
</defs>
</svg>
