<svg width="140" height="140" viewBox="0 0 140 140" fill="none" xmlns="http://www.w3.org/2000/svg">
<path d="M16.8052 63.1425C18.1813 52.226 19.8684 43.5613 22.2966 36.7848C24.7229 30.0137 27.8788 25.1573 32.1756 21.8224C36.4724 18.4876 41.9601 16.6356 49.1215 15.9656C56.2886 15.2949 65.1009 15.8109 76.0174 17.1869C86.934 18.563 95.5986 20.25 102.375 22.6783C109.146 25.1046 114.003 28.2604 117.338 32.5573C120.672 36.8541 122.524 42.3417 123.194 49.5031C123.865 56.6703 123.349 65.4826 121.973 76.3991C120.597 87.3156 118.91 95.9803 116.482 102.757C114.055 109.528 110.9 114.384 106.603 117.719C102.306 121.054 96.8182 122.906 89.6568 123.576C82.4896 124.247 73.6773 123.731 62.7608 122.355C51.8443 120.979 43.1797 119.292 36.4031 116.863C29.632 114.437 24.7756 111.281 21.4408 106.984C18.1059 102.688 16.254 97.1999 15.5839 90.0385C14.9133 82.8713 15.4292 74.059 16.8052 63.1425Z" fill="url(#paint0_linear_1504_996)" stroke="url(#paint1_linear_1504_996)"/>
<defs>
<linearGradient id="paint0_linear_1504_996" x1="36.3587" y1="15.5759" x2="96.4989" y2="127.111" gradientUnits="userSpaceOnUse">
<stop stop-color="#7C9DF8"/>
<stop offset="1" stop-color="#00F218"/>
</linearGradient>
<linearGradient id="paint1_linear_1504_996" x1="36.3587" y1="15.5759" x2="96.4989" y2="127.111" gradientUnits="userSpaceOnUse">
<stop stop-color="#7C9DF8"/>
<stop offset="1" stop-color="#00F218"/>
</linearGradient>
</defs>
</svg>
