<svg width="32" height="32" viewBox="0 0 32 32" fill="none">
<path d="M10 5C10.5523 5 11 5.44772 11 6C11 6.55228 10.5523 7 10 7H8V28H24V7H22C21.4477 7 21 6.55228 21 6C21 5.44772 21.4477 5 22 5H24C24.5272 5 25.0439 5.18058 25.4316 5.56836C25.8194 5.95614 26 6.47275 26 7V28C26 28.5272 25.8194 29.0439 25.4316 29.4316C25.0439 29.8194 24.5272 30 24 30H8C7.47275 30 6.95614 29.8194 6.56836 29.4316C6.18058 29.0439 6 28.5272 6 28V7C6 6.47275 6.18058 5.95614 6.56836 5.56836C6.95614 5.18058 7.47275 5 8 5H10Z" class="icon__part icon__part_premium"/>
<path d="M19 5C19.5523 5 20 5.44772 20 6C20 6.55228 19.5523 7 19 7H13C12.4477 7 12 6.55228 12 6C12 5.44772 12.4477 5 13 5H19Z" class="icon__part icon__part_alt"/>
<path d="M17 4C17 3.44772 16.5523 3 16 3C15.4477 3 15 3.44772 15 4C15 4.55228 15.4477 5 16 5C16.5523 5 17 4.55228 17 4ZM19 4C19 5.65685 17.6569 7 16 7C14.3431 7 13 5.65685 13 4C13 2.34315 14.3431 1 16 1C17.6569 1 19 2.34315 19 4Z" class="icon__part icon__part_alt"/>
</svg>
