<svg width="32" height="32" viewBox="0 0 32 32" fill="none">
<path d="M3 20.3994C3.00021 15.6474 6.84764 11.8 11.5996 11.7998C14.469 11.7998 17.0073 13.2037 18.5693 15.3613C19.0545 15.2538 19.5546 15.2002 20.0996 15.2002C23.8518 15.2002 26.9999 18.3474 27 22.0996C27 25.8408 23.9629 29 20.0996 29H11.5996C6.8475 28.9998 3 25.1516 3 20.3994ZM18.2002 20.3994C18.2 16.7519 15.2472 13.7998 11.5996 13.7998C7.9522 13.8 5.00021 16.752 5 20.3994C5 24.047 7.95207 26.9998 11.5996 27H20.0996C22.8363 27 25 24.7584 25 22.0996C24.9999 19.452 22.7473 17.2002 20.0996 17.2002C19.9221 17.2002 19.7538 17.2079 19.5918 17.2227C19.9825 18.2056 20.2001 19.2767 20.2002 20.3994C20.2002 20.9516 19.7524 21.3993 19.2002 21.3994C18.6479 21.3994 18.2002 20.9517 18.2002 20.3994Z" class="icon__part icon__part_premium"/>
<path d="M17.9588 2.46059C18.3172 2.33035 18.7181 2.41509 18.993 2.67934C19.2679 2.94374 19.3689 3.34144 19.2527 3.70473C18.5715 5.8336 19.1627 8.23489 20.8885 9.87466C22.6015 11.502 25.013 11.9459 27.1951 11.2477C27.5443 11.136 27.9274 11.2246 28.1922 11.4782C28.4567 11.7317 28.5611 12.11 28.4646 12.4635C28.1154 13.7438 27.4256 14.8772 26.5476 15.8649C26.1807 16.2774 25.5482 16.3147 25.1355 15.9479C24.7228 15.581 24.6858 14.9486 25.0525 14.5358C25.3396 14.2128 25.5913 13.8798 25.8084 13.5397C23.5619 13.7086 21.2702 12.9956 19.5115 11.3249C17.7793 9.67921 16.8979 7.43114 16.9822 5.18423C16.6654 5.40147 16.372 5.64214 16.1072 5.90688C15.0152 6.99891 14.487 8.44919 14.3982 9.95864C14.3658 10.5099 13.8929 10.9305 13.3416 10.8981C12.7903 10.8657 12.3698 10.3927 12.4021 9.84145C12.5133 7.95094 13.1852 6.00076 14.6932 4.49282C15.6108 3.57516 16.742 2.90306 17.9588 2.46059Z" class="icon__part icon__part_alt"/>
<path d="M6.5 11C7.32843 11 8 10.3284 8 9.5C8 8.67157 7.32843 8 6.5 8C5.67157 8 5 8.67157 5 9.5C5 10.3284 5.67157 11 6.5 11Z" class="icon__part icon__part_alt"/>
<path d="M9 6C9.55228 6 10 5.55228 10 5C10 4.44772 9.55228 4 9 4C8.44772 4 8 4.44772 8 5C8 5.55228 8.44772 6 9 6Z" class="icon__part icon__part_alt"/>
</svg>
