<svg xmlns="http://www.w3.org/2000/svg">
    <defs>
        <style>
            :root svg:not(:target) {
                display: none;
            }
        </style>
    </defs>

	<svg id="download" viewBox="0 0 24 24" fill="currentColor">
		<path d="M11.4444 6.75C8.65101 6.75 6.35585 8.88704 6.10594 11.6149C6.07 12.0073 5.74063 12.306 5.34837 12.3056C3.9362 12.3044 2.75 13.4797 2.75 14.8889C2.75 16.3156 3.9066 17.4722 5.33333 17.4722H6C6.41421 17.4722 6.75 17.808 6.75 18.2222C6.75 18.6364 6.41421 18.9722 6 18.9722H5.33333C3.07817 18.9722 1.25 17.1441 1.25 14.8889C1.25 12.8644 2.76567 11.1724 4.69762 10.858C5.28682 7.66679 8.08302 5.25 11.4444 5.25C13.947 5.25 16.1354 6.5899 17.3334 8.58865C20.2024 8.47555 22.75 10.8223 22.75 13.7778C22.75 16.4717 20.6998 18.6859 18.0741 18.9466C17.6619 18.9875 17.2946 18.6866 17.2537 18.2744C17.2127 17.8622 17.5137 17.4949 17.9259 17.4539C19.792 17.2687 21.25 15.693 21.25 13.7778C21.25 11.565 19.2032 9.80912 17.0261 10.1209C16.7057 10.1668 16.3871 10.0044 16.239 9.70953C15.3572 7.95291 13.5406 6.75 11.4444 6.75Z" />
		<g opacity="0.5">
			<path d="M12 19.9394L13.9696 17.9698C14.2625 17.6769 14.7374 17.6769 15.0303 17.9698C15.3232 18.2627 15.3232 18.7375 15.0303 19.0304L12.8839 21.1769C12.3957 21.665 11.6043 21.665 11.1161 21.1769L8.96967 19.0304C8.67678 18.7375 8.67678 18.2627 8.96967 17.9698C9.26256 17.6769 9.73744 17.6769 10.0303 17.9698L12 19.9394Z" />
			<path d="M12 13.25C12.4142 13.25 12.75 13.5858 12.75 14L12.75 20C12.75 20.4142 12.4142 20.75 12 20.75C11.5858 20.75 11.25 20.4142 11.25 20L11.25 14C11.25 13.5858 11.5858 13.25 12 13.25Z" />
		</g>
	</svg>

	<svg id="arrow-right" viewBox="0 0 24 24" fill="currentColor">
		<path fill-rule="evenodd" clip-rule="evenodd" d="M13.7613 11.7071C13.9057 11.8757 13.9057 12.1243 13.7613 12.2928L8.43068 18.5119C8.16111 18.8264 8.19753 19.2999 8.51203 19.5694C8.82652 19.839 9.3 19.8026 9.56956 19.4881L14.9002 13.269C15.5261 12.5388 15.5261 11.4612 14.9002 10.7309L9.56956 4.51189C9.3 4.1974 8.82652 4.16098 8.51203 4.43055C8.19753 4.70011 8.16111 5.17359 8.43068 5.48808L13.7613 11.7071Z"/>
	</svg>

	<svg id="arrow-left" viewBox="0 0 24 24" fill="currentColor">
		<path fill-rule="evenodd" clip-rule="evenodd" d="M10.2387 12.2929C10.0943 12.1243 10.0943 11.8757 10.2387 11.7072L15.5693 5.48811C15.8389 5.17361 15.8025 4.70014 15.488 4.43057C15.1735 4.161 14.7 4.19743 14.4304 4.51192L9.09982 10.731C8.47389 11.4612 8.47389 12.5388 9.09982 13.2691L14.4304 19.4881C14.7 19.8026 15.1735 19.839 15.488 19.5695C15.8025 19.2999 15.8389 18.8264 15.5693 18.5119L10.2387 12.2929Z"/>
	</svg>

	<svg id="message" viewBox="0 0 24 24" fill="currentColor">
		<path fill-rule="evenodd" clip-rule="evenodd" d="M12 2.75C6.89137 2.75 2.75 6.89137 2.75 12C2.75 13.523 3.11751 14.9581 3.76804 16.2233C3.98714 16.6494 4.04633 17.1657 3.87446 17.6521L2.94618 20.2791C2.82014 20.6358 3.16372 20.9793 3.52039 20.8533L6.04298 19.9619C6.54889 19.7832 7.08623 19.8543 7.52184 20.0958C8.84798 20.8311 10.3739 21.25 12 21.25C17.1086 21.25 21.25 17.1086 21.25 12C21.25 6.89137 17.1086 2.75 12 2.75ZM1.25 12C1.25 6.06294 6.06294 1.25 12 1.25C17.9371 1.25 22.75 6.06294 22.75 12C22.75 17.9371 17.9371 22.75 12 22.75C10.113 22.75 8.33751 22.2632 6.79451 21.4077C6.7001 21.3554 6.60823 21.3531 6.54274 21.3762L4.02015 22.2676C2.47455 22.8138 0.985728 21.3249 1.53188 19.7793L2.46016 17.1523C2.48243 17.0893 2.4814 17.0013 2.43404 16.9092C1.67697 15.4367 1.25 13.7671 1.25 12Z"/>
		<path opacity="0.5" d="M8.30005 12.0498C8.30005 12.7402 7.7404 13.2998 7.05005 13.2998C6.35969 13.2998 5.80005 12.7402 5.80005 12.0498C5.80005 11.3594 6.35969 10.7998 7.05005 10.7998C7.7404 10.7998 8.30005 11.3594 8.30005 12.0498Z"/>
		<path opacity="0.5" d="M13.3 12.0498C13.3 12.7402 12.7404 13.2998 12.05 13.2998C11.3597 13.2998 10.8 12.7402 10.8 12.0498C10.8 11.3594 11.3597 10.7998 12.05 10.7998C12.7404 10.7998 13.3 11.3594 13.3 12.0498Z"/>
		<path opacity="0.5" d="M18.3 12.0498C18.3 12.7402 17.7404 13.2998 17.05 13.2998C16.3597 13.2998 15.8 12.7402 15.8 12.0498C15.8 11.3594 16.3597 10.7998 17.05 10.7998C17.7404 10.7998 18.3 11.3594 18.3 12.0498Z"/>
	</svg>

	<svg id="email" viewBox="0 0 24 24" fill="currentColor">
		<path fill-rule="evenodd" clip-rule="evenodd" d="M1.25 9C1.25 5.82436 3.82436 3.25 7 3.25H17C20.1756 3.25 22.75 5.82436 22.75 9V15C22.75 18.1756 20.1756 20.75 17 20.75H7C3.82436 20.75 1.25 18.1756 1.25 15V9ZM7 4.75C4.65279 4.75 2.75 6.65279 2.75 9V15C2.75 17.3472 4.65279 19.25 7 19.25H17C19.3472 19.25 21.25 17.3472 21.25 15V9C21.25 6.65279 19.3472 4.75 17 4.75H7Z"/>
		<path opacity="0.5" fill-rule="evenodd" clip-rule="evenodd" d="M5.40004 8.55004C5.64857 8.21867 6.11867 8.15152 6.45004 8.40004L11.25 12C11.6945 12.3334 12.3056 12.3334 12.75 12L17.55 8.40004C17.8814 8.15152 18.3515 8.21867 18.6 8.55004C18.8486 8.88142 18.7814 9.35152 18.45 9.60004L13.65 13.2C12.6723 13.9334 11.3278 13.9334 10.35 13.2L5.55004 9.60004C5.21867 9.35152 5.15152 8.88142 5.40004 8.55004Z"/>
	</svg>

	<svg id="menu" viewBox="0 0 24 24" fill="currentColor">
		<path fill-rule="evenodd" clip-rule="evenodd" d="M20.75 6C20.75 6.41421 20.4142 6.75 20 6.75L4 6.75C3.58579 6.75 3.25 6.41421 3.25 6C3.25 5.58579 3.58579 5.25 4 5.25L20 5.25C20.4142 5.25 20.75 5.58579 20.75 6Z"/>
		<path opacity="0.5" fill-rule="evenodd" clip-rule="evenodd" d="M20.75 12C20.75 12.4142 20.4142 12.75 20 12.75L4 12.75C3.58579 12.75 3.25 12.4142 3.25 12C3.25 11.5858 3.58579 11.25 4 11.25L20 11.25C20.4142 11.25 20.75 11.5858 20.75 12Z"/>
		<path fill-rule="evenodd" clip-rule="evenodd" d="M20.75 18C20.75 18.4142 20.4142 18.75 20 18.75H4C3.58579 18.75 3.25 18.4142 3.25 18C3.25 17.5858 3.58579 17.25 4 17.25H20C20.4142 17.25 20.75 17.5858 20.75 18Z"/>
	</svg>

	<svg id="behance" viewBox="0 0 24 24" fill="currentColor">
		<path d="M7.92303 6C8.52189 6 9.06852 6.05333 9.56294 6.15888C10.0574 6.26443 10.4796 6.43776 10.8318 6.67885C11.184 6.91995 11.4573 7.23994 11.6517 7.63992C11.8462 8.0399 11.9428 8.5332 11.9428 9.12095C11.9428 9.75536 11.7984 10.2842 11.5106 10.7075C11.2229 11.1308 10.7962 11.4775 10.2329 11.7475C11.0084 11.9708 11.5873 12.3619 11.9695 12.9196C12.3517 13.4774 12.5428 14.1507 12.5428 14.9384C12.5428 15.5728 12.4195 16.1228 12.1728 16.5872C11.9262 17.0517 11.594 17.4305 11.1762 17.7238C10.7584 18.0183 10.2829 18.2349 9.74849 18.376C9.21074 18.5171 8.65632 18.5882 8.1008 18.5871H2V6H7.92303ZM7.57082 11.0942C8.06413 11.0942 8.46967 10.9764 8.78743 10.742C9.10519 10.5064 9.26407 10.1253 9.26296 9.59648C9.26296 9.30316 9.20963 9.06206 9.10408 8.8743C8.99853 8.68653 8.85742 8.53876 8.68077 8.43321C8.50411 8.32766 8.3019 8.25433 8.07302 8.21322C7.83748 8.17211 7.5986 8.151 7.35861 8.15211H4.76875V11.0964L7.57082 11.0942ZM7.72971 16.435C7.9908 16.4361 8.25079 16.4095 8.50522 16.3561C8.75188 16.3028 8.96964 16.215 9.15741 16.0917C9.34518 15.9684 9.49517 15.8006 9.60739 15.5895C9.71849 15.3784 9.77516 15.1073 9.77516 14.7784C9.77516 14.1329 9.59294 13.6707 9.22852 13.3952C8.86409 13.1185 8.38189 12.9808 7.78304 12.9808H4.76875V16.4361L7.72971 16.435ZM16.0248 16.1706C16.4004 16.535 16.9415 16.7172 17.647 16.7172C18.1525 16.7172 18.5869 16.5906 18.9513 16.3384C19.3158 16.0861 19.5391 15.8184 19.6213 15.5362H21.8245C21.4723 16.6295 20.9312 17.4105 20.2024 17.8805C19.4735 18.3505 18.5925 18.586 17.5581 18.586C16.8415 18.586 16.1948 18.4716 15.6193 18.2427C15.0438 18.0138 14.556 17.6872 14.156 17.2639C13.7561 16.8406 13.4472 16.3361 13.2305 15.7484C13.0139 15.1606 12.905 14.514 12.905 13.8096C12.905 13.1285 13.0161 12.4941 13.2394 11.9064C13.4627 11.3186 13.7805 10.8109 14.1916 10.382C14.6027 9.95313 15.0938 9.61537 15.6637 9.36872C16.2337 9.12206 16.8659 8.99873 17.5592 8.99873C18.3347 8.99873 19.0102 9.14873 19.5869 9.44871C20.1624 9.7487 20.6357 10.1509 21.0057 10.6564C21.3757 11.162 21.6434 11.7375 21.8079 12.3841C21.9723 13.0307 22.0312 13.7063 21.9845 14.4118H15.4093C15.4438 15.2195 15.6493 15.8073 16.0248 16.1706ZM18.8547 11.3764C18.5547 11.0475 18.0992 10.8831 17.4881 10.8831C17.0881 10.8831 16.7559 10.9509 16.4926 11.0853C16.2282 11.2208 16.0171 11.3875 15.8582 11.5875C15.6993 11.7875 15.5882 11.9986 15.5237 12.2219C15.4593 12.4452 15.4204 12.6452 15.4093 12.8208H19.4813C19.3624 12.1875 19.1536 11.7053 18.8547 11.3764Z"/>
		<path opacity="0.5" d="M20.0677 6.63867H14.9802V8.04971H20.0677V6.63867Z"/>
	</svg>

	<svg id="dribbble" viewBox="0 0 24 24" fill="currentColor">
		<path d="M2 12C2 10.1867 2.44668 8.51334 3.34 6.98C4.23334 5.44666 5.44668 4.23334 6.98 3.34C8.51334 2.44666 10.1867 2 12 2C13.8133 2 15.4867 2.44666 17.02 3.34C18.5533 4.23334 19.7667 5.44666 20.66 6.98C21.5533 8.51334 22 10.1867 22 12C22 13.8133 21.5533 15.4867 20.66 17.02C19.7667 18.5533 18.5533 19.7667 17.02 20.66C15.4867 21.5533 13.8133 22 12 22C10.1867 22 8.51334 21.5533 6.98 20.66C5.44668 19.7667 4.23334 18.5533 3.34 17.02C2.44668 15.4867 2 13.8133 2 12ZM3.66 12C3.66 14.08 4.36 15.9133 5.76 17.5C6.4 16.2467 7.41334 15.0533 8.8 13.92C10.1867 12.7867 11.54 12.0733 12.86 11.78C12.66 11.3133 12.4667 10.8933 12.28 10.52C9.98668 11.2533 7.50668 11.62 4.84 11.62C4.32 11.62 3.93334 11.6133 3.68 11.6C3.68 11.6533 3.67668 11.72 3.67 11.8C3.66334 11.88 3.66 11.9467 3.66 12ZM3.92 9.94C4.21334 9.96666 4.64668 9.98 5.22 9.98C7.44668 9.98 9.56 9.68 11.56 9.08C10.5467 7.28 9.43334 5.78 8.22 4.58C7.16668 5.11334 6.26334 5.85334 5.51 6.8C4.75668 7.74666 4.22668 8.79334 3.92 9.94ZM6.9 18.58C8.40668 19.7533 10.1067 20.34 12 20.34C12.9867 20.34 13.9667 20.1533 14.94 19.78C14.6733 17.5 14.1533 15.2933 13.38 13.16C12.1533 13.4267 10.9167 14.1 9.67 15.18C8.42334 16.26 7.5 17.3933 6.9 18.58ZM9.96 3.94C11.1333 5.15334 12.22 6.66666 13.22 8.48C15.0333 7.72 16.4 6.75334 17.32 5.58C15.7733 4.3 14 3.66 12 3.66C11.32 3.66 10.64 3.75334 9.96 3.94ZM13.94 9.9C14.14 10.3267 14.3667 10.8667 14.62 11.52C15.6067 11.4267 16.68 11.38 17.84 11.38C18.6667 11.38 19.4867 11.4 20.3 11.44C20.1933 9.62666 19.54 8.01334 18.34 6.6C17.4733 7.89334 16.0067 8.99334 13.94 9.9ZM15.12 12.92C15.8 14.8933 16.26 16.92 16.5 19C17.5533 18.32 18.4133 17.4467 19.08 16.38C19.7467 15.3133 20.1467 14.16 20.28 12.92C19.3067 12.8533 18.42 12.82 17.62 12.82C16.8867 12.82 16.0533 12.8533 15.12 12.92Z"/>
	</svg>
</svg>
