<svg xmlns="http://www.w3.org/2000/svg">
    <defs>
        <style>
            :root svg:not(:target) {
                display: none;
            }
        </style>
    </defs>
	<svg id="download" viewBox="0 0 24 24" fill="currentColor">
		<path d="M11.4444 6.75C8.65101 6.75 6.35585 8.88704 6.10594 11.6149C6.07 12.0073 5.74063 12.306 5.34837 12.3056C3.9362 12.3044 2.75 13.4797 2.75 14.8889C2.75 16.3156 3.9066 17.4722 5.33333 17.4722H6C6.41421 17.4722 6.75 17.808 6.75 18.2222C6.75 18.6364 6.41421 18.9722 6 18.9722H5.33333C3.07817 18.9722 1.25 17.1441 1.25 14.8889C1.25 12.8644 2.76567 11.1724 4.69762 10.858C5.28682 7.66679 8.08302 5.25 11.4444 5.25C13.947 5.25 16.1354 6.5899 17.3334 8.58865C20.2024 8.47555 22.75 10.8223 22.75 13.7778C22.75 16.4717 20.6998 18.6859 18.0741 18.9466C17.6619 18.9875 17.2946 18.6866 17.2537 18.2744C17.2127 17.8622 17.5137 17.4949 17.9259 17.4539C19.792 17.2687 21.25 15.693 21.25 13.7778C21.25 11.565 19.2032 9.80912 17.0261 10.1209C16.7057 10.1668 16.3871 10.0044 16.239 9.70953C15.3572 7.95291 13.5406 6.75 11.4444 6.75Z" />
		<g opacity="0.3">
			<path d="M12 19.9394L13.9696 17.9698C14.2625 17.6769 14.7374 17.6769 15.0303 17.9698C15.3232 18.2627 15.3232 18.7375 15.0303 19.0304L12.8839 21.1769C12.3957 21.665 11.6043 21.665 11.1161 21.1769L8.96967 19.0304C8.67678 18.7375 8.67678 18.2627 8.96967 17.9698C9.26256 17.6769 9.73744 17.6769 10.0303 17.9698L12 19.9394Z" />
			<path d="M12 13.25C12.4142 13.25 12.75 13.5858 12.75 14L12.75 20C12.75 20.4142 12.4142 20.75 12 20.75C11.5858 20.75 11.25 20.4142 11.25 20L11.25 14C11.25 13.5858 11.5858 13.25 12 13.25Z" />
		</g>
	</svg>
</svg>
