<svg xmlns="http://www.w3.org/2000/svg">
    <defs>
        <style>
            :root svg:not(:target) {
                display: none;
            }
        </style>
    </defs>

	<svg id="download" viewBox="0 0 24 24" fill="currentColor">
		<path d="M11.4444 6.75C8.65101 6.75 6.35585 8.88704 6.10594 11.6149C6.07 12.0073 5.74063 12.306 5.34837 12.3056C3.9362 12.3044 2.75 13.4797 2.75 14.8889C2.75 16.3156 3.9066 17.4722 5.33333 17.4722H6C6.41421 17.4722 6.75 17.808 6.75 18.2222C6.75 18.6364 6.41421 18.9722 6 18.9722H5.33333C3.07817 18.9722 1.25 17.1441 1.25 14.8889C1.25 12.8644 2.76567 11.1724 4.69762 10.858C5.28682 7.66679 8.08302 5.25 11.4444 5.25C13.947 5.25 16.1354 6.5899 17.3334 8.58865C20.2024 8.47555 22.75 10.8223 22.75 13.7778C22.75 16.4717 20.6998 18.6859 18.0741 18.9466C17.6619 18.9875 17.2946 18.6866 17.2537 18.2744C17.2127 17.8622 17.5137 17.4949 17.9259 17.4539C19.792 17.2687 21.25 15.693 21.25 13.7778C21.25 11.565 19.2032 9.80912 17.0261 10.1209C16.7057 10.1668 16.3871 10.0044 16.239 9.70953C15.3572 7.95291 13.5406 6.75 11.4444 6.75Z" />
		<g opacity="0.5">
			<path d="M12 19.9394L13.9696 17.9698C14.2625 17.6769 14.7374 17.6769 15.0303 17.9698C15.3232 18.2627 15.3232 18.7375 15.0303 19.0304L12.8839 21.1769C12.3957 21.665 11.6043 21.665 11.1161 21.1769L8.96967 19.0304C8.67678 18.7375 8.67678 18.2627 8.96967 17.9698C9.26256 17.6769 9.73744 17.6769 10.0303 17.9698L12 19.9394Z" />
			<path d="M12 13.25C12.4142 13.25 12.75 13.5858 12.75 14L12.75 20C12.75 20.4142 12.4142 20.75 12 20.75C11.5858 20.75 11.25 20.4142 11.25 20L11.25 14C11.25 13.5858 11.5858 13.25 12 13.25Z" />
		</g>
	</svg>

	<svg id="arrow-right" viewBox="0 0 24 24" fill="currentColor">
		<path fill-rule="evenodd" clip-rule="evenodd" d="M13.7613 11.7071C13.9057 11.8757 13.9057 12.1243 13.7613 12.2928L8.43068 18.5119C8.16111 18.8264 8.19753 19.2999 8.51203 19.5694C8.82652 19.839 9.3 19.8026 9.56956 19.4881L14.9002 13.269C15.5261 12.5388 15.5261 11.4612 14.9002 10.7309L9.56956 4.51189C9.3 4.1974 8.82652 4.16098 8.51203 4.43055C8.19753 4.70011 8.16111 5.17359 8.43068 5.48808L13.7613 11.7071Z"/>
	</svg>

	<svg id="arrow-left" viewBox="0 0 24 24" fill="currentColor">
		<path fill-rule="evenodd" clip-rule="evenodd" d="M10.2387 12.2929C10.0943 12.1243 10.0943 11.8757 10.2387 11.7072L15.5693 5.48811C15.8389 5.17361 15.8025 4.70014 15.488 4.43057C15.1735 4.161 14.7 4.19743 14.4304 4.51192L9.09982 10.731C8.47389 11.4612 8.47389 12.5388 9.09982 13.2691L14.4304 19.4881C14.7 19.8026 15.1735 19.839 15.488 19.5695C15.8025 19.2999 15.8389 18.8264 15.5693 18.5119L10.2387 12.2929Z"/>
	</svg>

	<svg id="arrow-long-right" viewBox="0 0 24 24" fill="currentColor">
		<path fill-rule="evenodd" clip-rule="evenodd" d="M4.25 12C4.25 11.5858 4.58579 11.25 5 11.25L19 11.25C19.4142 11.25 19.75 11.5858 19.75 12C19.75 12.4142 19.4142 12.75 19 12.75L5 12.75C4.58579 12.75 4.25 12.4142 4.25 12Z" fill-opacity="0.5"/>
		<path fill-rule="evenodd" clip-rule="evenodd" d="M18.7625 11.8232C18.8601 11.9209 18.8601 12.0791 18.7625 12.1768L15.4696 15.4697C15.1767 15.7626 15.1767 16.2374 15.4696 16.5303C15.7625 16.8232 16.2373 16.8232 16.5302 16.5303L19.8231 13.2374C20.5065 12.554 20.5065 11.446 19.8231 10.7626L16.5302 7.46967C16.2373 7.17678 15.7625 7.17678 15.4696 7.46967C15.1767 7.76256 15.1767 8.23744 15.4696 8.53033L18.7625 11.8232Z"/>
	</svg>

	<svg id="message" viewBox="0 0 24 24" fill="currentColor">
		<path fill-rule="evenodd" clip-rule="evenodd" d="M12 2.75C6.89137 2.75 2.75 6.89137 2.75 12C2.75 13.523 3.11751 14.9581 3.76804 16.2233C3.98714 16.6494 4.04633 17.1657 3.87446 17.6521L2.94618 20.2791C2.82014 20.6358 3.16372 20.9793 3.52039 20.8533L6.04298 19.9619C6.54889 19.7832 7.08623 19.8543 7.52184 20.0958C8.84798 20.8311 10.3739 21.25 12 21.25C17.1086 21.25 21.25 17.1086 21.25 12C21.25 6.89137 17.1086 2.75 12 2.75ZM1.25 12C1.25 6.06294 6.06294 1.25 12 1.25C17.9371 1.25 22.75 6.06294 22.75 12C22.75 17.9371 17.9371 22.75 12 22.75C10.113 22.75 8.33751 22.2632 6.79451 21.4077C6.7001 21.3554 6.60823 21.3531 6.54274 21.3762L4.02015 22.2676C2.47455 22.8138 0.985728 21.3249 1.53188 19.7793L2.46016 17.1523C2.48243 17.0893 2.4814 17.0013 2.43404 16.9092C1.67697 15.4367 1.25 13.7671 1.25 12Z"/>
		<path opacity="0.5" d="M8.30005 12.0498C8.30005 12.7402 7.7404 13.2998 7.05005 13.2998C6.35969 13.2998 5.80005 12.7402 5.80005 12.0498C5.80005 11.3594 6.35969 10.7998 7.05005 10.7998C7.7404 10.7998 8.30005 11.3594 8.30005 12.0498Z"/>
		<path opacity="0.5" d="M13.3 12.0498C13.3 12.7402 12.7404 13.2998 12.05 13.2998C11.3597 13.2998 10.8 12.7402 10.8 12.0498C10.8 11.3594 11.3597 10.7998 12.05 10.7998C12.7404 10.7998 13.3 11.3594 13.3 12.0498Z"/>
		<path opacity="0.5" d="M18.3 12.0498C18.3 12.7402 17.7404 13.2998 17.05 13.2998C16.3597 13.2998 15.8 12.7402 15.8 12.0498C15.8 11.3594 16.3597 10.7998 17.05 10.7998C17.7404 10.7998 18.3 11.3594 18.3 12.0498Z"/>
	</svg>

	<svg id="email" viewBox="0 0 24 24" fill="currentColor">
		<path fill-rule="evenodd" clip-rule="evenodd" d="M1.25 9C1.25 5.82436 3.82436 3.25 7 3.25H17C20.1756 3.25 22.75 5.82436 22.75 9V15C22.75 18.1756 20.1756 20.75 17 20.75H7C3.82436 20.75 1.25 18.1756 1.25 15V9ZM7 4.75C4.65279 4.75 2.75 6.65279 2.75 9V15C2.75 17.3472 4.65279 19.25 7 19.25H17C19.3472 19.25 21.25 17.3472 21.25 15V9C21.25 6.65279 19.3472 4.75 17 4.75H7Z"/>
		<path opacity="0.5" fill-rule="evenodd" clip-rule="evenodd" d="M5.40004 8.55004C5.64857 8.21867 6.11867 8.15152 6.45004 8.40004L11.25 12C11.6945 12.3334 12.3056 12.3334 12.75 12L17.55 8.40004C17.8814 8.15152 18.3515 8.21867 18.6 8.55004C18.8486 8.88142 18.7814 9.35152 18.45 9.60004L13.65 13.2C12.6723 13.9334 11.3278 13.9334 10.35 13.2L5.55004 9.60004C5.21867 9.35152 5.15152 8.88142 5.40004 8.55004Z"/>
	</svg>

	<svg id="menu" viewBox="0 0 24 24" fill="currentColor">
		<path fill-rule="evenodd" clip-rule="evenodd" d="M20.75 6C20.75 6.41421 20.4142 6.75 20 6.75L4 6.75C3.58579 6.75 3.25 6.41421 3.25 6C3.25 5.58579 3.58579 5.25 4 5.25L20 5.25C20.4142 5.25 20.75 5.58579 20.75 6Z"/>
		<path opacity="0.5" fill-rule="evenodd" clip-rule="evenodd" d="M20.75 12C20.75 12.4142 20.4142 12.75 20 12.75L4 12.75C3.58579 12.75 3.25 12.4142 3.25 12C3.25 11.5858 3.58579 11.25 4 11.25L20 11.25C20.4142 11.25 20.75 11.5858 20.75 12Z"/>
		<path fill-rule="evenodd" clip-rule="evenodd" d="M20.75 18C20.75 18.4142 20.4142 18.75 20 18.75H4C3.58579 18.75 3.25 18.4142 3.25 18C3.25 17.5858 3.58579 17.25 4 17.25H20C20.4142 17.25 20.75 17.5858 20.75 18Z"/>
	</svg>

	<svg id="behance" viewBox="0 0 24 24" fill="currentColor">
		<path d="M7.92303 6C8.52189 6 9.06852 6.05333 9.56294 6.15888C10.0574 6.26443 10.4796 6.43776 10.8318 6.67885C11.184 6.91995 11.4573 7.23994 11.6517 7.63992C11.8462 8.0399 11.9428 8.5332 11.9428 9.12095C11.9428 9.75536 11.7984 10.2842 11.5106 10.7075C11.2229 11.1308 10.7962 11.4775 10.2329 11.7475C11.0084 11.9708 11.5873 12.3619 11.9695 12.9196C12.3517 13.4774 12.5428 14.1507 12.5428 14.9384C12.5428 15.5728 12.4195 16.1228 12.1728 16.5872C11.9262 17.0517 11.594 17.4305 11.1762 17.7238C10.7584 18.0183 10.2829 18.2349 9.74849 18.376C9.21074 18.5171 8.65632 18.5882 8.1008 18.5871H2V6H7.92303ZM7.57082 11.0942C8.06413 11.0942 8.46967 10.9764 8.78743 10.742C9.10519 10.5064 9.26407 10.1253 9.26296 9.59648C9.26296 9.30316 9.20963 9.06206 9.10408 8.8743C8.99853 8.68653 8.85742 8.53876 8.68077 8.43321C8.50411 8.32766 8.3019 8.25433 8.07302 8.21322C7.83748 8.17211 7.5986 8.151 7.35861 8.15211H4.76875V11.0964L7.57082 11.0942ZM7.72971 16.435C7.9908 16.4361 8.25079 16.4095 8.50522 16.3561C8.75188 16.3028 8.96964 16.215 9.15741 16.0917C9.34518 15.9684 9.49517 15.8006 9.60739 15.5895C9.71849 15.3784 9.77516 15.1073 9.77516 14.7784C9.77516 14.1329 9.59294 13.6707 9.22852 13.3952C8.86409 13.1185 8.38189 12.9808 7.78304 12.9808H4.76875V16.4361L7.72971 16.435ZM16.0248 16.1706C16.4004 16.535 16.9415 16.7172 17.647 16.7172C18.1525 16.7172 18.5869 16.5906 18.9513 16.3384C19.3158 16.0861 19.5391 15.8184 19.6213 15.5362H21.8245C21.4723 16.6295 20.9312 17.4105 20.2024 17.8805C19.4735 18.3505 18.5925 18.586 17.5581 18.586C16.8415 18.586 16.1948 18.4716 15.6193 18.2427C15.0438 18.0138 14.556 17.6872 14.156 17.2639C13.7561 16.8406 13.4472 16.3361 13.2305 15.7484C13.0139 15.1606 12.905 14.514 12.905 13.8096C12.905 13.1285 13.0161 12.4941 13.2394 11.9064C13.4627 11.3186 13.7805 10.8109 14.1916 10.382C14.6027 9.95313 15.0938 9.61537 15.6637 9.36872C16.2337 9.12206 16.8659 8.99873 17.5592 8.99873C18.3347 8.99873 19.0102 9.14873 19.5869 9.44871C20.1624 9.7487 20.6357 10.1509 21.0057 10.6564C21.3757 11.162 21.6434 11.7375 21.8079 12.3841C21.9723 13.0307 22.0312 13.7063 21.9845 14.4118H15.4093C15.4438 15.2195 15.6493 15.8073 16.0248 16.1706ZM18.8547 11.3764C18.5547 11.0475 18.0992 10.8831 17.4881 10.8831C17.0881 10.8831 16.7559 10.9509 16.4926 11.0853C16.2282 11.2208 16.0171 11.3875 15.8582 11.5875C15.6993 11.7875 15.5882 11.9986 15.5237 12.2219C15.4593 12.4452 15.4204 12.6452 15.4093 12.8208H19.4813C19.3624 12.1875 19.1536 11.7053 18.8547 11.3764Z"/>
		<path opacity="0.5" d="M20.0677 6.63867H14.9802V8.04971H20.0677V6.63867Z"/>
	</svg>

	<svg id="dribbble" viewBox="0 0 16 16" fill="currentColor">
		<path fill-rule="evenodd" clip-rule="evenodd" d="M5.31477 1.35541C8.98447 -0.127627 13.1616 1.64501 14.6446 5.31471C16.1277 8.98441 14.355 13.1615 10.6853 14.6446C7.01562 16.1276 2.8385 14.355 1.35547 10.6853C-0.127569 7.01556 1.64507 2.83844 5.31477 1.35541ZM13.7175 5.6894C12.4414 2.53175 8.84711 1.00646 5.68946 2.28256C2.53181 3.55866 1.00652 7.15292 2.28262 10.3106C3.55872 13.4682 7.15298 14.9935 10.3106 13.7174C13.4683 12.4413 14.9936 8.84705 13.7175 5.6894Z"/>
		<g opacity="0.5">
			<path fill-rule="evenodd" clip-rule="evenodd" d="M8.81197 10.0088C10.6706 9.25762 12.6604 9.34198 14.3627 10.0844L13.9629 11.0011C12.4967 10.3616 10.7861 10.2895 9.18666 10.9359C7.58717 11.5823 6.40697 12.8226 5.79676 14.3013L4.87238 13.9198C5.58086 12.203 6.95332 10.7599 8.81197 10.0088Z"/>
			<path fill-rule="evenodd" clip-rule="evenodd" d="M7.18827 5.99115C9.01582 5.25259 10.3572 3.8191 11.0423 2.11083L10.1142 1.73861C9.525 3.20775 8.3757 4.4327 6.81359 5.064C5.25147 5.69529 3.5738 5.61281 2.12931 4.96554L1.72039 5.87811C3.39999 6.63074 5.36073 6.72971 7.18827 5.99115Z"/>
			<path fill-rule="evenodd" clip-rule="evenodd" d="M14.6446 5.31471C14.7481 5.57074 14.6244 5.86216 14.3684 5.96563L2.00638 10.9615C1.75036 11.065 1.45893 10.9413 1.35546 10.6853C1.252 10.4292 1.37567 10.1378 1.63169 10.0343L13.9937 5.03848C14.2497 4.93501 14.5412 5.05868 14.6446 5.31471Z"/>
			<path fill-rule="evenodd" clip-rule="evenodd" d="M10.6853 14.6446C10.9413 14.5411 11.065 14.2497 10.9615 13.9936L5.96563 1.63164C5.86216 1.37561 5.57074 1.25194 5.31471 1.35541C5.05869 1.45888 4.93501 1.7503 5.03848 2.00633L10.0343 14.3683C10.1378 14.6244 10.4292 14.748 10.6853 14.6446Z"/>
		</g>
	</svg>

	<svg id="linkedin" viewBox="0 0 16 16" fill="currentColor">
		<path d="M3.49884 5.98537H5.57343V12.6618H3.49884V5.98537ZM4.53692 2.66666C5.20035 2.66666 5.7389 3.20521 5.7389 3.8702C5.7389 4.53519 5.20035 5.07373 4.53692 5.07373C3.87193 5.07373 3.33338 4.53519 3.33338 3.8702C3.33182 3.20677 3.87036 2.66666 4.53692 2.66666Z"/>
		<path opacity="0.5" d="M6.87463 5.9849H8.86492V6.89653H8.89302C9.16932 6.37203 9.84524 5.81787 10.8568 5.81787C12.9579 5.81787 13.3466 7.20093 13.3466 8.99765V12.6613H11.272V9.416C11.272 8.64018 11.258 7.64581 10.1933 7.64581C9.11312 7.64581 8.94766 8.48876 8.94766 9.3598V12.6629H6.87463V5.9849Z"/>
	</svg>

	<svg id="video" viewBox="0 0 24 24" fill="currentColor">
		<path fill-rule="evenodd" clip-rule="evenodd" d="M12 2.75C6.89137 2.75 2.75 6.89137 2.75 12C2.75 17.1086 6.89137 21.25 12 21.25C17.1086 21.25 21.25 17.1086 21.25 12C21.25 6.89137 17.1086 2.75 12 2.75ZM1.25 12C1.25 6.06294 6.06294 1.25 12 1.25C17.9371 1.25 22.75 6.06294 22.75 12C22.75 17.9371 17.9371 22.75 12 22.75C6.06294 22.75 1.25 17.9371 1.25 12Z"/>
		<path opacity="0.5" fill-rule="evenodd" clip-rule="evenodd" d="M9.25 10.0553C9.25 8.57767 10.8968 7.69635 12.1262 8.51597L15.0431 10.4606C16.1415 11.1929 16.1415 12.8069 15.0431 13.5392L12.1262 15.4838C10.8968 16.3034 9.25 15.4221 9.25 13.9445V10.0553ZM11.2941 9.76404C11.0616 9.60898 10.75 9.77572 10.75 10.0553V13.9445C10.75 14.2241 11.0616 14.3908 11.2941 14.2357L14.2111 12.2911C14.4189 12.1526 14.4189 11.8472 14.2111 11.7087L11.2941 9.76404Z"/>
	</svg>

	<svg id="slide" viewBox="0 0 24 24" fill="currentColor">
		<path fill-rule="evenodd" clip-rule="evenodd" d="M1.25 7C1.25 3.82436 3.82436 1.25 7 1.25H17C20.1756 1.25 22.75 3.82436 22.75 7V17C22.75 20.1756 20.1756 22.75 17 22.75H7C3.82436 22.75 1.25 20.1756 1.25 17V7ZM7 2.75C4.65279 2.75 2.75 4.65279 2.75 7V17C2.75 19.3472 4.65279 21.25 7 21.25H17C19.3472 21.25 21.25 19.3472 21.25 17V7C21.25 4.65279 19.3472 2.75 17 2.75H7Z"/>
		<path opacity="0.5" fill-rule="evenodd" clip-rule="evenodd" d="M10.0258 16.7496C9.76604 16.7585 9.52015 16.6323 9.37596 16.416L7.59861 13.75H6C5.58579 13.75 5.25 13.4142 5.25 13C5.25 12.5858 5.58579 12.25 6 12.25L8 12.25C8.25076 12.25 8.48494 12.3753 8.62404 12.584L9.9509 14.5743L13.3488 8.62789C13.486 8.38774 13.7443 8.24261 14.0208 8.25029C14.2973 8.25796 14.5471 8.41719 14.6708 8.66459L16.4635 12.25H18C18.4142 12.25 18.75 12.5858 18.75 13C18.75 13.4142 18.4142 13.75 18 13.75H16C15.7159 13.75 15.4562 13.5895 15.3292 13.3354L13.9559 10.5888L10.6512 16.3721C10.5222 16.5978 10.2856 16.7406 10.0258 16.7496Z"/>
	</svg>

	<svg id="article" viewBox="0 0 24 24" fill="currentColor">
		<path fill-rule="evenodd" clip-rule="evenodd" d="M8 2.75C6.20507 2.75 4.75 4.20507 4.75 6V18C4.75 19.7949 6.20507 21.25 8 21.25H16C17.7949 21.25 19.25 19.7949 19.25 18V8.7241C19.25 8.43168 19.1475 8.14851 18.9603 7.92387L15.0235 3.19977C14.786 2.91478 14.4342 2.75 14.0633 2.75H8ZM3.25 6C3.25 3.37665 5.37665 1.25 8 1.25H14.0633C14.8794 1.25 15.6534 1.61251 16.1759 2.23949L20.1126 6.96359C20.5245 7.45781 20.75 8.08077 20.75 8.7241V18C20.75 20.6234 18.6234 22.75 16 22.75H8C5.37665 22.75 3.25 20.6234 3.25 18V6Z"/>
		<path fill-rule="evenodd" clip-rule="evenodd" d="M15 1.75C15.4142 1.75 15.75 2.08579 15.75 2.5V6C15.75 6.69036 16.3096 7.25 17 7.25H19.5C19.9142 7.25 20.25 7.58579 20.25 8C20.25 8.41421 19.9142 8.75 19.5 8.75H17C15.4812 8.75 14.25 7.51878 14.25 6V2.5C14.25 2.08579 14.5858 1.75 15 1.75Z"/>
		<path opacity="0.5" fill-rule="evenodd" clip-rule="evenodd" d="M7.25 12C7.25 11.5858 7.58579 11.25 8 11.25H16C16.4142 11.25 16.75 11.5858 16.75 12C16.75 12.4142 16.4142 12.75 16 12.75H8C7.58579 12.75 7.25 12.4142 7.25 12Z"/>
		<path opacity="0.5" fill-rule="evenodd" clip-rule="evenodd" d="M7.25 17C7.25 16.5858 7.58579 16.25 8 16.25H12C12.4142 16.25 12.75 16.5858 12.75 17C12.75 17.4142 12.4142 17.75 12 17.75H8C7.58579 17.75 7.25 17.4142 7.25 17Z"/>
	</svg>

	<svg id="link" viewBox="0 0 24 24" fill="currentColor">
		<path fill-rule="evenodd" clip-rule="evenodd" d="M10.9341 4.00532C13.1797 1.7598 16.8203 1.7598 19.0659 4.00532C21.3114 6.25083 21.3114 9.89153 19.0659 12.137L16.9445 14.2584C16.6517 14.5513 16.1768 14.5513 15.8839 14.2584C15.591 13.9655 15.591 13.4906 15.8839 13.1977L18.0052 11.0764C19.6649 9.41666 19.6649 6.72571 18.0052 5.06598C16.3455 3.40625 13.6545 3.40625 11.9948 5.06598L9.87348 7.1873C9.58058 7.48019 9.10571 7.48019 8.81282 7.1873C8.51992 6.8944 8.51992 6.41953 8.81282 6.12664L10.9341 4.00532ZM7.04505 8.95506C7.33794 9.24796 7.33794 9.72283 7.04505 10.0157L4.92373 12.137C3.264 13.7968 3.264 16.4877 4.92373 18.1475C6.58346 19.8072 9.27441 19.8072 10.9341 18.1475L13.0555 16.0261C13.3483 15.7332 13.8232 15.7332 14.1161 16.0261C14.409 16.319 14.409 16.7939 14.1161 17.0868L11.9948 19.2081C9.74928 21.4536 6.10858 21.4536 3.86307 19.2081C1.61755 16.9626 1.61755 13.3219 3.86307 11.0764L5.98439 8.95506C6.27728 8.66217 6.75216 8.66217 7.04505 8.95506Z"/>
		<path opacity="0.5" fill-rule="evenodd" clip-rule="evenodd" d="M8.8128 14.2588C8.51991 13.966 8.51991 13.4911 8.8128 13.1982L13.0554 8.95554C13.3483 8.66265 13.8232 8.66265 14.1161 8.95554C14.409 9.24844 14.409 9.72331 14.1161 10.0162L9.87346 14.2588C9.58057 14.5517 9.10569 14.5517 8.8128 14.2588Z"/>
	</svg>

	<svg id="home" viewBox="0 0 24 24" fill="currentColor">
		<path fill-rule="evenodd" clip-rule="evenodd" d="M14.0138 4.04581C12.8331 3.11364 11.1669 3.11364 9.98616 4.04581L4.48616 8.38792C3.70547 9.00425 3.25 9.94413 3.25 10.9388V17.5004C3.25 19.2953 4.70507 20.7504 6.5 20.7504H8C8.13807 20.7504 8.25 20.6384 8.25 20.5004V17.5004C8.25 15.9816 9.48122 14.7504 11 14.7504H13C14.5188 14.7504 15.75 15.9816 15.75 17.5004V20.5004C15.75 20.6384 15.8619 20.7504 16 20.7504H17.5C19.2949 20.7504 20.75 19.2953 20.75 17.5004V10.9388C20.75 9.94413 20.2945 9.00425 19.5138 8.38792L14.0138 4.04581ZM9.05669 2.86849C10.7824 1.50608 13.2176 1.50608 14.9433 2.86849L20.4433 7.21059C21.5843 8.11138 22.25 9.48506 22.25 10.9388V17.5004C22.25 20.1237 20.1234 22.2504 17.5 22.2504H16C15.0335 22.2504 14.25 21.4669 14.25 20.5004V17.5004C14.25 16.81 13.6904 16.2504 13 16.2504H11C10.3096 16.2504 9.75 16.81 9.75 17.5004V20.5004C9.75 21.4669 8.9665 22.2504 8 22.2504H6.5C3.87665 22.2504 1.75 20.1237 1.75 17.5004V10.9388C1.75 9.48506 2.41569 8.11138 3.55669 7.21059L9.05669 2.86849Z"/>
	</svg>

	<svg id="close" viewBox="0 0 24 24" fill="currentColor">
		<path fill-rule="evenodd" clip-rule="evenodd" d="M19.5302 4.46967C19.8231 4.76256 19.8231 5.23744 19.5302 5.53033L5.53033 19.5302C5.23744 19.8231 4.76257 19.8231 4.46967 19.5302C4.17678 19.2373 4.17678 18.7624 4.46967 18.4696L18.4696 4.46967C18.7624 4.17678 19.2373 4.17678 19.5302 4.46967Z"/>
		<path fill-rule="evenodd" clip-rule="evenodd" d="M19.5303 19.5302C19.2374 19.8231 18.7626 19.8231 18.4697 19.5302L4.46978 5.53033C4.17689 5.23744 4.17689 4.76257 4.46978 4.46967C4.76268 4.17678 5.23755 4.17678 5.53044 4.46967L19.5303 18.4696C19.8232 18.7624 19.8232 19.2373 19.5303 19.5302Z"/>
	</svg>

	<svg id="dash" width="16" height="16" fill="currentColor">
		<rect opacity="0.5" x="3" y="7" width="10" height="2" rx="1"/>
		<rect x="3" y="7" width="6" height="2" rx="1"/>
	</svg>

</svg>
