<svg width="175" height="159" viewBox="0 0 175 159" fill="none" xmlns="http://www.w3.org/2000/svg">
<path d="M169.074 154.958C169.697 156.335 169.605 157.836 168.793 159.547C168.358 160.464 165.841 163.451 151.809 163.376C147.361 163.352 143.033 163.019 140.039 162.724C142.048 160.368 143.898 157.881 145.577 155.282C154.056 158.804 159.507 158.87 162.211 155.488L162.385 155.271C164.31 152.855 165.271 152.003 165.738 151.713C166.564 152.101 168.288 153.225 169.074 154.958Z" fill="#D0FDC7"/>
<path d="M50.2235 45.3814C49.5738 45.4105 49.0235 44.9097 48.9945 44.2627C48.9655 43.6158 49.4687 43.0677 50.1185 43.0386C50.7682 43.0095 51.3184 43.5103 51.3474 44.1573C51.3765 44.8042 50.8732 45.3523 50.2235 45.3814Z" fill="#D0FDC7"/>
<path d="M132.428 164.355C120.438 176.209 104.138 184.026 87.7073 185.8C72.7904 187.411 56.9733 183.129 43.1688 173.741C30.7745 165.314 20.9996 153.566 16.3121 141.478C16.3049 141.451 16.2977 141.425 16.2894 141.398C16.2545 141.249 16.2088 141.103 16.1527 140.961C10.1644 125.869 11.9132 122.484 12.1838 122.092C12.6858 122.132 13.8761 123.099 13.9813 124C14.5533 128.892 18.1136 139.988 20.126 143.15C32.1434 162.031 46.6625 170.785 56.7258 174.805C67.5393 179.125 75.5617 179.072 76.1456 179.062C88.0424 178.991 99.2348 174.102 107.647 165.295C112.027 160.686 115.432 155.248 117.662 149.304C119.892 143.36 120.9 137.032 120.626 130.694C120.126 119.54 114.443 108.122 104.622 98.5381C102.243 96.2248 99.7061 94.0785 97.0288 92.1148C96.9809 92.0737 96.9323 92.033 96.8801 91.9955C96.8386 91.9653 96.7955 91.9392 96.7532 91.9124C92.7207 88.9761 88.4115 86.4365 83.8861 84.3292C83.7849 84.2729 83.6795 84.2244 83.5708 84.1842C79.8732 82.4748 76.0319 81.092 72.0912 80.0519C71.6345 79.9329 71.1517 79.9605 70.7115 80.1306C69.7343 80.5287 68.7825 80.9863 67.8616 81.5007C66.3224 82.3212 64.8666 83.0972 62.9281 83.4443L62.8063 83.4498C58.1771 83.6574 52.1545 81.7509 45.2553 77.9168C46.1322 77.4558 46.8723 76.7736 47.4014 75.9384C47.9305 75.1033 48.2302 74.1445 48.2704 73.158C48.3106 72.1715 48.0899 71.1919 47.6305 70.3172C47.171 69.4425 46.4889 68.7033 45.6523 68.1737C44.8158 67.6441 43.8541 67.3426 42.8636 67.2993C41.873 67.256 40.8883 67.4725 40.008 67.9271C39.1277 68.3817 38.3826 69.0585 37.8474 69.8898C37.3121 70.7211 37.0054 71.6776 36.9579 72.6638C33.3165 70.0892 30.7329 67.9202 30.0797 67.362C26.8248 64.5815 22.0848 58.2028 23.2208 52.9223C24.0281 49.1698 27.7735 46.285 34.353 44.3476C37.8345 43.318 41.3829 42.5281 44.9731 41.9835C44.5849 42.8769 44.4354 43.8551 44.5392 44.8228C44.643 45.7906 44.9965 46.715 45.5654 47.5063C46.1343 48.2975 46.8992 48.9286 47.7858 49.3383C48.6723 49.7479 49.6503 49.922 50.6246 49.8438C51.5989 49.7656 52.5365 49.4377 53.346 48.8919C54.1556 48.3462 54.8096 47.6011 55.2445 46.7293C55.6794 45.8575 55.8804 44.8885 55.8279 43.9166C55.7754 42.9448 55.4712 42.003 54.9449 41.1831C66.8069 41.0787 74.2574 44.1318 75.3296 44.6026C77.4548 46.0796 78.0607 48.4312 78.7005 50.9212C79.227 52.9697 79.7716 55.0878 81.3042 56.541C82.4935 57.6685 84.4227 57.8332 85.9891 57.8439C86.1569 57.8629 86.3263 57.8628 86.4941 57.8436C90.0927 58.0602 93.6767 58.4719 97.2301 59.0769C97.3154 59.0959 97.4016 59.1102 97.4885 59.1197C101.711 59.8463 105.866 60.9133 109.915 62.3101C109.993 62.3482 110.072 62.382 110.154 62.4112C110.236 62.4397 110.321 62.4633 110.406 62.4819C119.86 65.8507 127.823 70.9581 134.206 77.7753C144.303 88.5582 150.053 103.47 150.835 120.902C151.535 136.494 144.998 151.926 132.428 164.355Z" fill="#D0FDC7"/>
<path d="M98.0112 149.904C97.396 149.926 95.1645 149.333 92.8786 148.561C92.6364 146.499 92.6942 142.446 96.6284 141.515C100.798 140.529 107.716 148.428 110.99 153.145C109.215 156.423 107.013 159.455 104.442 162.16C104.4 160.443 104.122 158.74 103.616 157.098C103.248 155.872 101.246 149.759 98.0112 149.904Z" fill="#D0FDC7"/>
<path d="M42.6679 74.107C42.0181 74.1361 41.4679 73.6353 41.4389 72.9883C41.4099 72.3414 41.9131 71.7933 42.5628 71.7642C43.2125 71.735 43.7628 72.2359 43.7918 72.8828C43.8208 73.5298 43.3176 74.0779 42.6679 74.107Z" fill="#D0FDC7"/>
<path d="M116.007 30.1786L112.167 45.7631C111.545 49.7153 110.643 53.619 109.468 57.4447C107.194 56.7212 104.846 56.0888 102.423 55.5476C107.799 48.2789 108.983 34.0443 109.243 28.506C106.772 28.7883 102.21 29.1971 99.1989 28.7905C98.6137 28.7058 98.0858 28.3944 97.7301 27.9242C97.3743 27.4539 97.2195 26.8627 97.2992 26.2792C97.3789 25.6956 97.6867 25.1669 98.1557 24.8081C98.6247 24.4492 99.217 24.2891 99.8037 24.3627C101.496 24.5914 103.918 24.4958 106.014 24.3299C103.987 22.5455 101.142 19.7314 100.019 17.5285C99.7549 17.0008 99.7113 16.3906 99.8973 15.8309C100.083 15.2711 100.484 14.8072 101.012 14.5401C101.54 14.2731 102.152 14.2247 102.716 14.4054C103.279 14.5861 103.748 14.9812 104.02 15.5048C104.763 16.9625 107.021 19.2319 108.776 20.7999C108.003 18.5817 107.808 17.4383 107.151 13.4321L107.138 13.3518C107.09 13.0618 107.099 12.7652 107.166 12.4788C107.233 12.1925 107.356 11.9221 107.528 11.6832C107.7 11.4443 107.918 11.2416 108.169 11.0866C108.42 10.9316 108.699 10.8274 108.991 10.78C109.282 10.7326 109.58 10.7429 109.867 10.8104C110.154 10.8778 110.426 11.0011 110.665 11.1731C110.904 11.345 111.107 11.5624 111.262 11.8126C111.417 12.0629 111.52 12.3411 111.567 12.6313L111.58 12.7117C112.296 17.0779 112.404 17.7191 113.488 20.6345C114.77 19.0793 115.86 17.3777 116.737 15.5656C116.857 15.2976 117.029 15.0558 117.243 14.854C117.457 14.6521 117.709 14.4942 117.984 14.3892C118.259 14.2842 118.553 14.2342 118.847 14.242C119.142 14.2499 119.432 14.3154 119.701 14.4349C119.97 14.5544 120.213 14.7255 120.415 14.9384C120.618 15.1514 120.776 15.402 120.882 15.676C120.987 15.9499 121.037 16.2419 121.029 16.5352C121.021 16.8285 120.955 17.1174 120.835 17.3854C120.728 17.6258 118.59 22.3291 114.642 25.8881C114.847 25.8168 115.061 25.7755 115.278 25.7656C117.083 25.6847 120.322 23.0133 122.046 21.1424C122.448 20.7051 123.008 20.4447 123.602 20.4183C124.197 20.3919 124.778 20.6018 125.217 21.0017C125.656 21.4017 125.917 21.959 125.943 22.551C125.97 23.143 125.759 23.7213 125.357 24.1586C124.495 25.097 120.132 29.6388 116.007 30.1786Z" fill="#D0FDC7"/>
<path d="M53.8537 113.829C53.2613 113.886 52.6708 113.705 52.2121 113.328C51.7534 112.951 51.4642 112.407 51.4079 111.817C51.3517 111.227 51.5331 110.639 51.9123 110.182C52.2914 109.726 52.8372 109.437 53.4297 109.381C56.0696 109.133 60.3392 110.156 62.9084 110.926C62.0906 108.999 61.0313 106.857 59.9656 105.597C59.7758 105.373 59.6322 105.113 59.543 104.834C59.4539 104.554 59.4209 104.26 59.4461 103.967C59.4712 103.675 59.5539 103.39 59.6895 103.13C59.8251 102.869 60.0108 102.638 60.2362 102.449C60.4537 102.26 60.7071 102.117 60.9814 102.029C61.2556 101.94 61.5449 101.907 61.832 101.933C62.1191 101.958 62.3981 102.041 62.6522 102.177C62.9064 102.312 63.1304 102.497 63.3109 102.721C65.1538 104.899 66.6896 108.528 67.5429 110.862C71.9044 107.947 83.4249 98.8313 84.9814 89.9066C87.5082 91.2239 89.9557 92.6868 92.3113 94.2879C89.6833 97.6104 86.8249 100.746 83.7571 103.671L72.6604 115.942C74.4901 119.69 72.9495 125.897 72.6109 127.137C72.4548 127.709 72.0771 128.195 71.5611 128.489C71.045 128.783 70.4329 128.861 69.8593 128.706C69.2857 128.55 68.7976 128.175 68.5024 127.661C68.2072 127.147 68.1291 126.538 68.2853 125.966C68.9335 123.592 69.4772 119.354 68.5848 117.802C68.477 117.614 68.3973 117.412 68.3483 117.201C67.4419 122.426 64.5957 126.742 64.4495 126.961C64.119 127.453 63.6066 127.793 63.0245 127.909C62.4424 128.025 61.8379 127.907 61.3435 127.58C60.8492 127.253 60.5051 126.744 60.3867 126.165C60.2684 125.586 60.3853 124.983 60.712 124.49C61.8122 122.728 62.6915 120.839 63.3302 118.864C61.3367 119.272 59.401 119.922 57.5668 120.8C56.9757 121.058 56.2913 121.357 55.4545 121.712C55.1833 121.827 54.8921 121.888 54.5974 121.891C54.3027 121.894 54.0104 121.839 53.737 121.73C53.4636 121.621 53.2145 121.459 53.004 121.253C52.7935 121.048 52.6257 120.803 52.5102 120.533C52.3946 120.264 52.3336 119.974 52.3307 119.68C52.3277 119.387 52.3828 119.096 52.4928 118.823C52.6028 118.551 52.7656 118.303 52.9718 118.093C53.1781 117.884 53.4238 117.716 53.6949 117.601C54.5152 117.253 55.1853 116.96 55.7639 116.708C57.329 115.967 58.958 115.369 60.6311 114.921C58.3845 114.308 55.4149 113.683 53.8537 113.829Z" fill="#D0FDC7"/>
<path d="M75.0429 138.194C75.1515 137.921 75.3131 137.672 75.5184 137.461C75.7238 137.25 75.9688 137.082 76.2396 136.965C76.5104 136.849 76.8015 136.787 77.0964 136.782C77.3913 136.778 77.6842 136.831 77.9582 136.94C80.371 137.913 82.7232 139.03 85.0024 140.282C83.8409 138.222 82.0381 135.427 80.7366 134.368C80.5085 134.182 80.3194 133.953 80.1802 133.695C80.0409 133.436 79.9541 133.153 79.9248 132.861C79.8955 132.569 79.9243 132.274 80.0094 131.993C80.0945 131.712 80.2344 131.451 80.421 131.224C80.6076 130.996 80.8373 130.808 81.0969 130.669C81.3566 130.531 81.6412 130.444 81.9344 130.415C82.2276 130.385 82.5237 130.414 82.8057 130.499C83.0878 130.583 83.3504 130.722 83.5785 130.908C85.8199 132.733 88.3824 137.027 89.5566 139.28C90.192 137.162 90.6398 134.993 90.8951 132.798C90.9431 132.207 91.2248 131.659 91.6782 131.275C92.1315 130.891 92.7195 130.702 93.3127 130.75C93.9059 130.797 94.4558 131.077 94.8413 131.529C95.2268 131.98 95.4165 132.565 95.3685 133.156C95.0285 137.336 93.0608 143.186 92.9771 143.433C92.9738 143.442 92.9686 143.45 92.9653 143.46C92.9524 143.497 92.9341 143.532 92.9188 143.568C92.8825 143.658 92.8404 143.745 92.7928 143.829C92.7713 143.867 92.7481 143.902 92.7228 143.938C92.6651 144.026 92.6009 144.11 92.5308 144.189C92.5158 144.207 92.5059 144.228 92.4902 144.243C92.4744 144.258 92.4601 144.273 92.4454 144.289L92.4304 144.304C91.8955 144.864 91.3199 145.384 90.7081 145.86C91.0389 145.881 91.3608 145.975 91.6506 146.135C91.9404 146.295 92.1909 146.517 92.384 146.786C92.5771 147.054 92.708 147.361 92.7672 147.686C92.8264 148.011 92.8126 148.345 92.7265 148.663C91.6241 152.779 85.8115 156.308 84.6573 156.973C84.4021 157.125 84.1193 157.225 83.8252 157.266C83.5312 157.308 83.2317 157.292 82.9442 157.217C82.6567 157.143 82.3869 157.013 82.1505 156.834C81.914 156.655 81.7156 156.431 81.5668 156.175C81.4179 155.919 81.3216 155.636 81.2834 155.343C81.2452 155.05 81.2659 154.752 81.3443 154.466C81.4226 154.181 81.557 153.914 81.7398 153.681C81.9226 153.447 82.15 153.253 82.409 153.108C84.5473 151.874 87.9258 149.245 88.3902 147.514C88.3999 147.478 88.4126 147.445 88.4231 147.411C85.4785 149.086 82.3097 150.334 79.0121 151.12C78.4322 151.245 77.8261 151.137 77.3264 150.819C76.8266 150.5 76.474 149.998 76.3457 149.421C76.2174 148.844 76.3238 148.24 76.6416 147.741C76.9595 147.242 77.4629 146.888 78.0417 146.758C80.0345 146.271 81.9785 145.604 83.8493 144.764C81.4169 143.378 78.8952 142.153 76.3006 141.097C76.0265 140.989 75.7765 140.828 75.5649 140.623C75.3533 140.419 75.1843 140.175 75.0675 139.905C74.9507 139.636 74.8884 139.346 74.8842 139.052C74.88 138.759 74.9339 138.467 75.0429 138.194V138.194Z" fill="#D0FDC7"/>
<path d="M185.445 156.641C185.042 156.706 184.636 156.747 184.228 156.763C181.63 156.879 178.124 156.285 175.879 155.786C176.835 157.648 178.048 159.709 179.203 160.888C179.408 161.098 179.57 161.347 179.68 161.619C179.789 161.891 179.843 162.183 179.839 162.476C179.836 162.769 179.774 163.059 179.658 163.329C179.541 163.599 179.373 163.843 179.162 164.048C178.951 164.253 178.701 164.414 178.428 164.523C178.154 164.632 177.861 164.686 177.567 164.682C177.272 164.679 176.981 164.617 176.71 164.502C176.44 164.386 176.194 164.218 175.989 164.008C173.001 160.956 170.364 154.621 170.148 154.094C170.144 154.085 170.141 154.076 170.137 154.067L170.137 154.064C170.136 154.06 170.134 154.057 170.133 154.053C170.107 153.99 170.085 153.926 170.065 153.859C170.057 153.834 170.052 153.807 170.045 153.782C170.034 153.738 170.023 153.696 170.014 153.651C170.005 153.607 170.001 153.57 169.995 153.529C169.992 153.504 169.986 153.479 169.984 153.455C169.983 153.446 169.983 153.437 169.983 153.428C169.982 153.419 169.982 153.406 169.981 153.395C169.926 152.827 169.9 152.256 169.905 151.686C169.69 151.971 169.41 152.2 169.088 152.355C168.766 152.51 168.411 152.586 168.054 152.577C167.696 152.567 167.346 152.473 167.033 152.302C166.72 152.13 166.452 151.886 166.253 151.591C163.864 148.059 165.018 141.379 165.273 140.075C165.387 139.494 165.729 138.981 166.222 138.65C166.716 138.319 167.322 138.196 167.906 138.31C168.49 138.423 169.005 138.763 169.337 139.254C169.669 139.746 169.792 140.349 169.678 140.93C169.204 143.345 168.972 147.61 169.976 149.094C170.012 149.148 170.044 149.203 170.075 149.258C170.558 145.986 171.607 142.822 173.174 139.906C173.467 139.39 173.953 139.011 174.526 138.851C175.099 138.692 175.713 138.766 176.231 139.057C176.749 139.348 177.13 139.832 177.29 140.403C177.45 140.974 177.375 141.584 177.083 142.101C176.108 143.947 175.366 145.906 174.873 147.934C176.792 147.388 178.635 146.61 180.363 145.618C180.963 145.302 181.663 144.934 182.528 144.49C183.057 144.219 183.673 144.168 184.24 144.348C184.807 144.529 185.278 144.926 185.55 145.453C185.823 145.98 185.874 146.593 185.692 147.157C185.51 147.722 185.111 148.191 184.582 148.463C183.734 148.898 183.047 149.259 182.46 149.568C181.004 150.391 179.479 151.086 177.902 151.648C180.18 152.094 183.156 152.497 184.701 152.238C184.993 152.186 185.292 152.192 185.582 152.256C185.871 152.319 186.145 152.44 186.387 152.61C186.629 152.779 186.836 152.995 186.994 153.245C187.152 153.494 187.258 153.773 187.308 154.064C187.357 154.355 187.348 154.652 187.282 154.94C187.215 155.228 187.091 155.499 186.919 155.739C186.746 155.979 186.527 156.182 186.275 156.337C186.023 156.493 185.742 156.596 185.45 156.643L185.445 156.641Z" fill="#D0FDC7"/>
<path d="M20.619 53.4073L12.9573 51.4536C12.6718 51.3807 12.4036 51.2526 12.1679 51.0765C11.9323 50.9004 11.7338 50.6798 11.5837 50.4272C11.4337 50.1747 11.3351 49.8952 11.2936 49.6047C11.2521 49.3142 11.2684 49.0184 11.3417 48.7342C11.415 48.4499 11.5438 48.1828 11.7207 47.948C11.8977 47.7133 12.1193 47.5156 12.3729 47.3661C12.6266 47.2166 12.9073 47.1183 13.1991 47.0769C13.4908 47.0354 13.7879 47.0516 14.0734 47.1244L21.7351 49.0785L21.2786 53.4754C21.0566 53.4853 20.8343 53.4623 20.619 53.4073V53.4073Z" fill="#D0FDC7"/>
</svg>
