<svg width="32" height="32" viewBox="0 0 32 32" fill="none">
<path d="M29 27.9999V16.5155L16.3936 21.9188C16.1421 22.0265 15.8579 22.0265 15.6064 21.9188L3 16.5155V27.9999C3 28.5521 2.55228 28.9999 2 28.9999C1.44772 28.9999 1 28.5521 1 27.9999V14.9999L1.00781 14.8749C1.04402 14.5872 1.20381 14.3268 1.44922 14.1649C1.72977 13.9799 2.08465 13.9486 2.39355 14.0809L16 19.912L29.6064 14.0809C29.9154 13.9486 30.2702 13.9799 30.5508 14.1649C30.8313 14.35 31 14.6638 31 14.9999V27.9999C31 29.6521 29.6523 30.9999 28 30.9999H6C5.44772 30.9999 5 30.5521 5 29.9999C5 29.4476 5.44772 28.9999 6 28.9999H28C28.5477 28.9999 29 28.5476 29 27.9999Z" class="icon__part icon__part_premium"/>
<path d="M24 14V5C24 4.45228 23.5477 4 23 4H9C8.45228 4 8 4.45228 8 5V14C8 14.5523 7.55228 15 7 15C6.44772 15 6 14.5523 6 14V5C6 3.34772 7.34772 2 9 2H23C24.6523 2 26 3.34772 26 5V14C26 14.5523 25.5523 15 25 15C24.4477 15 24 14.5523 24 14Z" class="icon__part icon__part_alt"/>
<path d="M2.79102 12.2123C3.11586 11.7656 3.74183 11.6667 4.18848 11.9916C4.63478 12.3164 4.73362 12.9415 4.40919 13.3881L2.8086 15.5883C2.48381 16.0348 1.85875 16.1336 1.41212 15.809C0.965546 15.4842 0.86679 14.8591 1.19141 14.4125L2.79102 12.2123Z" class="icon__part icon__part_premium"/>
<path d="M27.8121 11.9915C28.2587 11.6668 28.8838 11.7656 29.2086 12.2122L30.8092 14.4124C31.1335 14.859 31.0348 15.4842 30.5884 15.8089C30.1418 16.1337 29.5158 16.0349 29.191 15.5882L27.5914 13.388C27.2666 12.9414 27.3655 12.3163 27.8121 11.9915Z" class="icon__part icon__part_premium"/>
<path d="M19.2176 7.37694C19.5617 6.94502 20.1909 6.8738 20.6229 7.21776C21.0548 7.56187 21.1262 8.19106 20.7821 8.62303L16.0819 14.5234C15.9024 14.7485 15.6341 14.8849 15.3465 14.8984C15.0589 14.9118 14.7796 14.8011 14.5799 14.5937L11.9793 11.8935C11.5965 11.4957 11.6089 10.8625 12.0067 10.4795C12.4045 10.0966 13.0377 10.1091 13.4207 10.5068L15.2283 12.3838L19.2176 7.37694Z" class="icon__part icon__part_alt"/>
</svg>
