<svg width="32" height="32" viewBox="0 0 32 32" fill="none">
<path d="M14 23.9998V20.9998H5.99998C5.64566 20.9998 5.31736 20.812 5.13767 20.5067C4.95825 20.2014 4.95405 19.824 5.12595 19.5145L15.126 1.51448C15.3472 1.11615 15.8098 0.917759 16.251 1.03206C16.692 1.14643 17 1.54422 17 1.99983V10.9998H25C25.3543 10.9998 25.6826 11.1876 25.8623 11.493C26.0417 11.7983 26.0459 12.1756 25.874 12.4852L15.874 30.4852C15.6058 30.9679 14.9974 31.1419 14.5146 30.8739C14.0319 30.6057 13.8579 29.9972 14.126 29.5145L23.3008 12.9998H16C15.4477 12.9998 15 12.5521 15 11.9998V5.85823L7.6992 18.9998H15C15.5523 18.9998 16 19.4475 16 19.9998V23.9998C16 24.5521 15.5523 24.9998 15 24.9998C14.4477 24.9998 14 24.5521 14 23.9998Z" class="icon__part icon__part_premium"/>
<path d="M15 16C15.5523 16 16 16.4477 16 17C16 17.5523 15.5523 18 15 18H13C12.4477 18 12 17.5523 12 17C12 16.4477 12.4477 16 13 16H15Z" class="icon__part icon__part_alt"/>
</svg>
